<svg xmlns="http://www.w3.org/2000/svg" viewBox="0 0 949.61 915.79"><defs><style>.cls-1{fill:#fc2115;}.cls-2{fill:#3551b8;}.cls-3{fill:#0123a3;}.cls-4{fill:#0124a4;}.cls-5{fill:#0123a2;}.cls-6{fill:#011c83;}.cls-7{fill:#069330;}.cls-8{fill:#011da8;}.cls-9{fill:#069230;}.cls-10{fill:#0322a8;}.cls-11{fill:#0222a7;}.cls-12{fill:#fa2016;}.cls-13{fill:#fcbe02;}.cls-14{fill:#fcbe01;}.cls-15{fill:#cc0f0a;}</style></defs><title>n64list</title><g id="Layer_2" data-name="Layer 2"><g id="Layer_1-2" data-name="Layer 1"><path class="cls-1" d="M864.88,280.41V249.94h82.73v30.47Z"/><path class="cls-1" d="M895.82,322.13c2.11-8.2,4.1-15.47,8.32-20.74a22.26,22.26,0,0,1,17.93-8.09c26.25,0,27.54,25.43,27.54,36a82,82,0,0,1-.82,12,32.3,32.3,0,0,1-3.16,11.37c-6.09,11.25-17.11,10.78-21.09,10.55l.35-25.66c4.92-.23,6.33-.35,8.2-2.23,1.41-1.41,2-4,2-6.21,0-5-3-8-6.45-8-5.16,0-6.68,5.74-8.32,12.19l-1.64,6.56c-2.93,10.78-6.91,25.31-26.37,25.31a31.8,31.8,0,0,1-12.77-2.46C863.71,355.76,863,338.3,863,329V328c0-6,.35-17,3.63-23.91,6-12.77,17.46-12.77,23.91-12.89l-.47,28.13a21.1,21.1,0,0,0-6.09.47c-5.74,1.64-6.56,6.56-6.56,9.14,0,5.63,3.4,8.91,8.44,8.91,5.74,0,6.8-3.87,9-12.07Z"/><path class="cls-1" d="M864.88,415.77V385.42h65.39V366.55h17.46v68.32H930.27v-19.1Z"/><path class="cls-1" d="M864.88,241.38V181.62h82.85l-.12,17.82H888.76l.12,41.95Z"/><path class="cls-2" d="M0,2.83H1.69l.1.44c0,1.12.07,2.23.07,3.35q0,53.66,0,107.31l-.07.36L0,114.19Z"/><path class="cls-3" d="M190.21,113.66a15.81,15.81,0,0,1-.58-2.4c-.1-1.27-.06-2.56-.06-3.84q0-48.95,0-97.89c0-1.89-.27-3.83.44-5.58,1.46-1.34,3.13-.94,4.68-.95,7.52,0,15,0,22.55,0,5.76,0,11.52,0,17.28,0,1.58,0,3.16.12,4.89.19.59,1.31,1.18,2.43,1.59,3.6q9.42,26.69,18.81,53.39c.41,1.15.6,2.43,1.83,3.35,1-1.26.73-2.55.74-3.73,0-7,0-14.08,0-21.11,0-9.92,0-19.83,0-29.75,0-1.72-.28-3.51.68-5.38A9.85,9.85,0,0,1,265.3,3Q279.45,3,293.61,3a11.16,11.16,0,0,1,2,.42,20.33,20.33,0,0,1,.65,2.71,31.89,31.89,0,0,1,.05,3.36q0,49.19,0,98.37c0,1.88.33,3.83-.66,5.88-1.21.12-2.45.34-3.68.34q-20.87,0-41.75,0c-.64,0-1.28,0-1.92,0a2.91,2.91,0,0,1-2.86-2.13c-.29-.75-.54-1.5-.8-2.26Q235.36,83,226.07,56.25c-.41-1.16-.93-2.29-1.37-3.34-1.25,0-1.14.8-1.17,1.35-.07,1.44,0,2.88,0,4.32q0,24.71,0,49.43c0,1.74-.09,3.47-.15,5.41a14,14,0,0,1-2.89.68q-13.68.07-27.35,0A19.32,19.32,0,0,1,190.21,113.66Z"/><path class="cls-4" d="M548,113.35a8.77,8.77,0,0,1-2,.67q-13.92.08-27.83.09c-.94,0-1.88-.18-3.05-.3a19,19,0,0,1-.69-2.69,30.78,30.78,0,0,1,0-3.36q0-49.19,0-98.38c0-1.88-.38-3.83.67-6A28.75,28.75,0,0,1,518.66,3q20.88,0,41.75,0c.48,0,1,0,1.44,0a3.08,3.08,0,0,1,3.26,2.27c.74,2.11,1.54,4.2,2.28,6.32q8.17,23.32,16.34,46.63a26.74,26.74,0,0,0,2.62,6.15c1.54-.76.91-2,.91-3q.06-22.08,0-44.15c0-3.2,0-6.4,0-9.6,0-1.26.16-2.52.26-3.93A14,14,0,0,1,590.43,3Q604.35,3,618.26,3a13.14,13.14,0,0,1,2.09.37A20.64,20.64,0,0,1,621,6.08c.11,1.11,0,2.24,0,3.36q0,49.19,0,98.38c0,1.88.3,3.82-.58,5.87a25,25,0,0,1-3.23.42q-21.12,0-42.23,0c-.48,0-1,0-1.44,0a3.21,3.21,0,0,1-3.49-2.62c-.32-1.07-.76-2.1-1.13-3.16Q559.45,81.39,550,54.45c-.3-.84-.71-1.65-1.47-3.4a31.68,31.68,0,0,0-.46,7.46c-.05,2.24,0,4.48,0,6.72q0,3.6,0,7.2,0,3.36,0,6.72t0,6.72q0,3.36,0,6.72,0,3.6,0,7.2c0,2.24,0,4.48,0,6.72S548,110.95,548,113.35Z"/><path class="cls-4" d="M1.84,113.92q0-53.66,0-107.31c0-1.12,0-2.24-.07-3.35C3.39,3.17,5,3,6.58,3Q26.26,3,45.94,3c5.28,0,5.14-.21,7,5.15q8.68,24.92,17.47,49.81c.74,2.1,1.56,4.16,2.3,6.12,1.29,0,1.21-.7,1.23-1.28.05-1.44,0-2.88,0-4.32Q74,33.75,74,9c0-1.73.09-3.47.14-5.35a15.71,15.71,0,0,1,3-.65Q90.56,3,104,3a19.93,19.93,0,0,1,3.35.61c.11,1.47.28,2.73.3,4,.56,34.85.28,100.95-.44,105.53-.94,1.18-2.3,1-3.54,1-5.6,0-11.2,0-16.8,0q-12,0-24,0c-1.58,0-3.15-.12-4.92-.19-.9-2.26-1.81-4.29-2.54-6.38Q46.53,82.19,37.69,56.82c-.45-1.29-.48-2.87-2.25-3.73a6.74,6.74,0,0,0-.61,1.7c-.1,1.43-.08,2.88-.08,4.32q0,24.48,0,49c0,1.74-.1,3.47-.16,5.26-3.85,1.46-7.55.64-11.15.78s-7,.06-10.56,0C9.2,114.09,5.52,114,1.84,113.92Z"/><path class="cls-4" d="M639.43,3.35c2-.15,3.37-.35,4.78-.35Q666,3,687.83,3a93.08,93.08,0,0,1,18.1,1.73,52.78,52.78,0,0,1,16.53,6.16,39.29,39.29,0,0,1,16,18,64.58,64.58,0,0,1,5.37,21.76,77.49,77.49,0,0,1-1.62,25.72c-2.46,9.85-7.07,18.43-14.73,25.27-7.27,6.49-15.89,10-25.37,11.57a81.9,81.9,0,0,1-12.4.91c-14.86.1-29.73,0-44.59,0-1.73,0-3.49.21-5.22-.49-.86-1.75-.56-3.53-.56-5.24,0-11,0-22.05,0-33.08q0-33.08,0-66.16C639.31,7.41,639.38,5.67,639.43,3.35Zm40.87,85.6c1.64.11,2.74.26,3.85.26,8.71,0,14.7-4,15.83-13.81a144.33,144.33,0,0,0,0-33,33.88,33.88,0,0,0-1.86-6.91,9.34,9.34,0,0,0-4.31-5,19.76,19.76,0,0,0-12-2.29,2,2,0,0,0-1.8,1.93,22.49,22.49,0,0,0-.12,2.39q0,26.4,0,52.79A35.61,35.61,0,0,0,680.29,88.95Z"/><path class="cls-4" d="M808.16.05C817.74-.08,826,1.3,833.95,4.68c12.12,5.18,20.39,14.1,25.12,26.29,4.66,12,5.76,24.47,4.32,37.23A72.51,72.51,0,0,1,860,84.09c-6.25,17.92-18.9,28.48-37.41,31.9a67.74,67.74,0,0,1-32.72-1.64c-14-4.33-23.91-13.3-29.5-26.77s-6.71-27.53-4.48-41.88a68.1,68.1,0,0,1,3.84-14.81c6.12-15.42,17.28-25,33.3-29A52.53,52.53,0,0,1,808.16.05Zm12.72,58.44c-.35-5.41-.62-11-1.11-16.55a27.38,27.38,0,0,0-2.62-9.66c-1.56-3.2-4.21-4.62-7.73-4.63a7.93,7.93,0,0,0-7.75,4.57,29.89,29.89,0,0,0-2.78,11.07,174.93,174.93,0,0,0,0,30.12,29.77,29.77,0,0,0,2.5,10.18c1.58,3.44,4.27,4.88,8,4.94s6.43-1.44,8-4.87a26.16,26.16,0,0,0,2.32-8.75C820.23,69.5,820.51,64.09,820.88,58.49Z"/><path class="cls-3" d="M494.66,44.41a15.79,15.79,0,0,1,.49,2.44q0,12-.06,24a5,5,0,0,1-.5,1.42c-1.6.94-3.39.62-5.11.63-8.63,0-17.27,0-25.9,0-1.28,0-2.56,0-3.84.07-2,.15-2.71.77-2.78,2.58-.11,3-.37,6,.28,8.74,2,1.27,3.76.91,5.47.91,10.39,0,20.78,0,31.18,0,1.72,0,3.52-.37,5.3.62a6.71,6.71,0,0,1,.46,1.73q.07,11.75,0,23.5a11.31,11.31,0,0,1-.39,2.15c-1.59,1.29-3.24.9-4.79.9-9.11,0-18.23,0-27.34,0H422.09c-1.74,0-3.49-.07-5.4-.12a20.58,20.58,0,0,1-.75-2.85,29.93,29.93,0,0,1,0-3.35q0-49.16,0-98.33c0-6.72-.17-6.52,6.62-6.51h70c1.74,0,3.48.1,5.33.16a8.74,8.74,0,0,1,.81,2.38c0,8.31,0,16.62,0,24.94a6.13,6.13,0,0,1-.4,1.46c-1.39,1.05-3,.66-4.58.66-10.23,0-20.46,0-30.7,0-1.74,0-3.47.09-5.33.13-1.32,3.63-.78,7.08-.53,10.4,1.39,1.5,3.08,1.08,4.62,1.08,9.11,0,18.23,0,27.34,0C490.84,44.28,492.58,44.36,494.66,44.41Z"/><path class="cls-5" d="M377.6,33.69c-.9,2.19-.63,4.13-.63,6q0,34.07,0,68.14c0,1.88.3,3.82-.59,5.86a17.33,17.33,0,0,1-2.73.44q-17.52,0-35,0a27.82,27.82,0,0,1-3-.35A22.1,22.1,0,0,1,335,111c-.09-1.43,0-2.88,0-4.32q0-33.35,0-66.7c0-1.9-.08-3.8-.11-5.32-1.24-1.57-2.6-1.32-3.84-1.32-5.76,0-11.52,0-17.28,0-1.56,0-3.12-.14-4.87-.23a18,18,0,0,1-.52-2.53c-.47-9.6-.18-23.36.59-27,.8-.15,1.69-.39,2.61-.49A21.69,21.69,0,0,1,314,3q41.75,0,83.5,0c1.72,0,3.52-.36,5.42.76.74,3,.27,6.18.35,9.32q.12,5,0,10.08c-.08,3.15.4,6.35-.43,9.63-4.21,1-8.36.31-12.47.5S382,33,377.6,33.69Z"/><path class="cls-5" d="M169.48,3.71a24.05,24.05,0,0,1,.4,2.72c.61,16.32.23,102.76-.5,107.1a11.33,11.33,0,0,1-2.57.59q-18,.06-36,0a11.76,11.76,0,0,1-2.15-.38c-1.12-1.84-.74-3.64-.75-5.36q0-21.33,0-42.67,0-28.29,0-56.57c0-6.13,0-6.15,6-6.15q15.1,0,30.2,0C165.86,3,167.65,2.7,169.48,3.71Z"/><path class="cls-6" d="M869.94,103.78c-.3-5.59,4.62-13.13,13.49-13.36,6.88-.18,13.59,6.71,13.45,13.53-.15,7.38-6.71,13.82-13.9,13.63C876.78,117.42,869.53,111.68,869.94,103.78Zm17.94.07c.67,2.07,1.21,3.89,1.84,5.67a1.26,1.26,0,0,0,2,.31,7.48,7.48,0,0,0,1.1-1.55A10.63,10.63,0,0,0,890.25,96a9.94,9.94,0,0,0-12.8-.58c-6.52,4.66-5.9,13,.27,17.38a9.84,9.84,0,0,0,6.42,1.47,7.41,7.41,0,0,0,5.36-2.3l-3-1.44c-.18-.56-.35-1-.45-1.46s-.09-1-.22-1.42c-.58-2.12-1.07-2.32-4.12-1.58-.22,1.31-.4,2.72-.75,4.08-.08.32-.71.67-1.11.69a1.44,1.44,0,0,1-1.14-.6,4.1,4.1,0,0,1-.43-1.82c0-2.88-.07-5.76,0-8.63a11.78,11.78,0,0,1,.75-2.69c1.31-.12,2.41-.25,3.52-.3a13.76,13.76,0,0,1,2.39.08c4,.52,4.9,2.38,3.18,6.35Zm-2.34-3.09A2.08,2.08,0,0,0,883.12,99a1.64,1.64,0,0,0-1.65,1.87c.05,1.22.94,1.86,2.31,1.68A1.8,1.8,0,0,0,885.53,100.76Z"/><path class="cls-7" d="M183,800.17c-1.72.58-3.13-.38-4.56-1-13.69-5.78-27.35-11.65-41-17.44q-28.92-12.23-57.86-24.4c-1.61-.68-3.18-1.45-4.91-2.24-.13-1.37-.27-2.62-.36-3.87-.05-.8,0-1.6,0-2.4q0-221.82,0-443.64a40.14,40.14,0,0,1,.13-4.79c.08-.69.72-1.32,1.11-2,1,.43,2,.88,3.08,1.28q45.94,17.74,91.89,35.45c4.16,1.6,8.37,3,12.56,4.57q14.68,27.78,29.36,55.56,18.75,35.39,37.55,70.76,20,37.73,39.9,75.48Q307.4,574.6,325,607.62c5.25,9.89,10.45,19.8,15.71,29.68.4.75.61,1.93,2.22,1.53v-5.14q0-112.54,0-225.08c0-4.07-.18-8-2.54-11.45a4.24,4.24,0,0,1-.34-1.38c.76.16,1.8.05,2.24.52,2.27,2.34,4.83,2.14,7.49,1.08a22,22,0,0,0,3.31-1.77c1.48-.91,2.84-2,4.39-2.8,2.43-1.19,5-2.17,7.48-3.17a6,6,0,0,0,3.14-2.8c1.78-3.21,3.51-6.44,5.34-9.62,2.15-3.73,4.26-7.49,6.62-11.08,1.71-2.62,4.67-4.41,5-7.93.06-.53.71-1,1.17-1.48a8.87,8.87,0,0,0,2.23-4.13,32.52,32.52,0,0,1,2.4-5.19c.57-1.13,1.41-2.15,1.86-3.33a74.5,74.5,0,0,1,8.76-16.43,13.93,13.93,0,0,0,1.94-3.28,26.31,26.31,0,0,1,3.35-5.74c2.55-3.85,4.92-7.84,7.1-11.91,2.71-5.05,5.1-10.28,7.76-15.36a69.87,69.87,0,0,1,6-10.3c1.47-1.91,2.94-3.62,3.61-6a14,14,0,0,1,1.5-3c2.28-4,4.65-8,6.86-12,2.91-5.32,5.55-10.78,8.58-16,2.13-3.7,3.77-7.79,7.25-10.58l2.1.58.06.26q-12.26,21.95-24.53,43.9-20.36,36.36-40.74,72.7c-6.56,11.7-13.15,23.37-19.68,35.09-1,1.78-2.47,3.4-2.38,5.65-1.28.6-2.53,1.29-3.85,1.8-6.69,2.59-13.4,5.13-20.09,7.72a14.11,14.11,0,0,0-1.89,1.19c1.45.71,2.37,1.26,3.36,1.64Q376,414.73,404.2,425.42q25,9.51,50.09,19a36,36,0,0,1,3.38,1.69c0,1.28.13,2.55.13,3.83q0,230.29,0,460.59c0,1.75-.21,3.5-.33,5.24h-4.8c.17-1.25-.77-1.63-1.64-2-3.66-1.6-7.32-3.22-11-4.77q-18.13-7.61-36.28-15.17-23.66-9.93-47.3-19.89c-3.09-1.3-6.16-2.68-9.31-3.83a10.47,10.47,0,0,1-6.21-5.51c-4.1-8.32-8.46-16.5-12.71-24.74Q311.3,807,294.39,774.19q-3.74-7.25-7.57-14.44c-.67-1.26-1.46-2.46-2.2-3.69-1.08-2.31-2.07-4.67-3.24-6.94-7.47-14.5-15-29-22.47-43.46q-12.75-24.73-25.44-49.49Q217.23,624.6,201,593q-7.47-14.5-15-29c-.62-1.18-1-2.65-2.26-3.33-.31.29-.5.38-.5.48Q183.1,680.7,183,800.17Z"/><path class="cls-8" d="M457.46,915.79c.11-1.75.33-3.5.33-5.24q0-230.29,0-460.59c0-1.28-.08-2.55-.13-3.83,1.5-.52,3-1,4.5-1.56l48.68-18.47q25.45-9.65,50.91-19.31c3.71-1.42,7.34-3.05,11-4.59,1,1.24,2.08,2.42,3,3.73q16.08,23,32.12,46,30.21,43.26,60.44,86.51l42.6,60.93q9.62,13.76,19.26,27.51c.57.8.9,2.21,2.68,1.5v-5.19q0-138.91,0-277.83c0-1.76-.08-3.51-.13-5.27,2.24-.85,4.49-1.68,6.72-2.55q38-14.65,76-29.32c8.34-3.22,16.66-6.49,25-9.74a15.62,15.62,0,0,1,.77,2.69,35.68,35.68,0,0,1,.05,3.84q0,221.7,0,443.39c0,2.07-.07,4.13-.11,6.32a31.51,31.51,0,0,1-3,1.67q-30.47,12.93-61,25.81-19.66,8.32-39.31,16.66c-1.88.79-3.69,2-5.92,1.49-1.13-1.55-2.23-3.12-3.39-4.64l-63.25-82.6L592.49,617.9c-5.44-7.11-10.86-14.23-16.35-21.3-.7-.9-1.23-2.21-3-2.3-.06,1-.14,1.73-.14,2.49q0,53.24,0,106.48a37.71,37.71,0,0,0,.47,4.26c-.08,2.07-.22,4.15-.23,6.22q0,73.64,0,147.28c0,8.63.68,6.88-6.66,10-18.08,7.72-36.26,15.22-54.39,22.82q-22.11,9.27-44.2,18.59a25.68,25.68,0,0,0-3.76,2.06c-.21.13-.06.83-.08,1.27Z"/><path class="cls-9" d="M732.72,340.08c0,1.76.13,3.51.13,5.27q0,138.91,0,277.83v5.19c-1.78.71-2.11-.7-2.68-1.5q-9.66-13.73-19.26-27.51l-42.6-60.93q-30.23-43.25-60.44-86.51-16.07-23-32.12-46c-.91-1.3-2-2.49-3-3.73-.85-.42-1.67-.91-2.54-1.25-4.71-1.83-9.45-3.59-14.16-5.43-4.55-1.78-9.07-3.63-13.6-5.45,2-2.21,4.12-4.38,6.1-6.63q8.32-9.44,16.58-18.93c2.27-2.46,4.59-4.88,6.81-7.39q10.5-11.84,21-23.73,13.49-15.28,27-30.55c1.47-1.65,3.24-3,4.87-4.52,1.46.63,2.9,1.3,4.38,1.88q16.06,6.24,32.13,12.43Q697,326.36,732.72,340.08Z"/><path class="cls-10" d="M565.14,364.49q-8.29,9.47-16.58,18.93c-2,2.25-4.07,4.42-6.1,6.63-.91-.28-1.85-.5-2.74-.84L474,364.14c-4.33-1.65-8.67-3.25-13-4.93a6.45,6.45,0,0,0-5.1,0c-2.95,1.22-6,2.3-8.95,3.43q-29.54,11.26-59.08,22.51c-5.81,2.21-11.66,4.3-17.5,6.45-.09-2.25,1.39-3.87,2.38-5.65,6.52-11.72,13.12-23.39,19.68-35.09q20.38-36.34,40.74-72.7,12.28-21.94,24.53-43.9l.36,0,.06-.24q12.48-4.8,25-9.61c14.11-5.46,28.21-11,42.33-16.39,12.93-5,25.88-9.88,38.82-14.82a14.72,14.72,0,0,1,.73,2.71c.13,1.59.06,3.19.06,4.79q0,78.52,0,157C565,360,565.09,362.26,565.14,364.49Z"/><path class="cls-7" d="M455.51,233.48c-3.48,2.79-5.11,6.89-7.25,10.58-3,5.24-5.68,10.71-8.58,16-2.21,4-4.58,8-6.86,12a14,14,0,0,0-1.5,3c-.66,2.36-2.14,4.07-3.61,6a69.87,69.87,0,0,0-6,10.3c-2.66,5.08-5,10.31-7.76,15.36-2.19,4.07-4.56,8.05-7.1,11.91a26.31,26.31,0,0,0-3.35,5.74,13.93,13.93,0,0,1-1.94,3.28,74.5,74.5,0,0,0-8.76,16.43c-.45,1.17-1.29,2.19-1.86,3.33a32.52,32.52,0,0,0-2.4,5.19,8.87,8.87,0,0,1-2.23,4.13c-.46.44-1.11.95-1.17,1.48-.37,3.52-3.32,5.31-5,7.93-2.36,3.6-4.47,7.36-6.62,11.08-1.83,3.18-3.56,6.41-5.34,9.62a6,6,0,0,1-3.14,2.8c-2.52,1-5.05,2-7.48,3.17-1.55.76-2.91,1.9-4.39,2.8a22,22,0,0,1-3.31,1.77c-2.67,1.05-5.23,1.25-7.49-1.08-.45-.46-1.48-.36-2.24-.52l0-.09c.63-3.63-.43-7-1.92-10.18-1.7-3.6-3.79-7-5.69-10.5a17.55,17.55,0,0,1-1.69-3.39c-2.52-8.86-7.72-16.41-11.84-24.49a3.85,3.85,0,0,0-3.84-2.36l0,0c.81-3.82-.38-7.24-2-10.58-2.28-4.57-4.7-9.07-6.77-13.73-2.52-5.68-4.77-11.47-8.65-16.43a7.65,7.65,0,0,1-1.26-2.56,6.66,6.66,0,0,0-3.62-4.22l2.06-3.65a4,4,0,0,0,4.62-2.52,29.31,29.31,0,0,1,1.76-2.82c2-3.25,4.32-6.35,5.82-9.82a128.28,128.28,0,0,1,6.91-13.59c1.75-3,3.08-6.27,4.82-9.28,2.08-3.57,4.42-7,6.61-10.49a129.33,129.33,0,0,0,7.44-13.31,17.3,17.3,0,0,0,1.66-9.2h-.06a10.79,10.79,0,0,0,1.88-.13c1.59-.39,2.19-1.7,2.66-3.08a2.31,2.31,0,0,0-1.16-2.82L339,215a4.83,4.83,0,0,0,4.17-2.73c2.78-4.6,5.66-9.15,8.3-13.83.83-1.47,1-3.28,1.52-4.94,2.56.87,5.17,1.64,7.69,2.62,11.16,4.33,22.3,8.73,33.45,13.08,16.66,6.49,33.34,12.93,50,19.45C447.94,230.12,451.7,231.85,455.51,233.48Z"/><path class="cls-11" d="M183,800.17q.08-119.47.17-238.94c0-.1.19-.19.5-.48,1.29.69,1.64,2.15,2.26,3.33q7.55,14.46,15,29,16.26,31.55,32.5,63.12,12.73,24.74,25.44,49.49c7.47,14.5,15,29,22.47,43.46,1.17,2.27,2.16,4.62,3.24,6.94q-14,6.18-28,12.36Q237.8,776.75,219,785.14q-15.51,6.91-31,13.84C186.44,799.68,184.93,800.79,183,800.17Z"/><path class="cls-12" d="M573.52,707.54a37.71,37.71,0,0,1-.47-4.26q0-53.24,0-106.48c0-.76.09-1.53.14-2.49,1.74.09,2.27,1.4,3,2.3,5.48,7.07,10.91,14.19,16.35,21.3l72.85,95.19,63.25,82.6c1.17,1.52,2.26,3.09,3.39,4.64a41.46,41.46,0,0,1-4.58-1.2q-41.6-16-83.18-32c-11.77-4.54-23.52-9.16-35.31-13.65a10.59,10.59,0,0,1-5.17-4q-13.38-19-26.94-37.89C575.79,710.22,574.62,708.9,573.52,707.54Z"/><path class="cls-13" d="M732.72,340.08Q697,326.35,661.28,312.62q-16.08-6.19-32.13-12.43c-1.48-.58-2.92-1.25-4.38-1.88,2.93-1.23,5.84-2.52,8.8-3.67q41.14-15.85,82.29-31.67c4.62-1.78,9.25-3.55,13.84-5.41a7.54,7.54,0,0,1,6,0c6.23,2.5,12.51,4.87,18.77,7.28l43.83,16.83q19.9,7.66,39.79,15.36a14.66,14.66,0,0,1,2.36,1.47c-8.33,3.25-16.65,6.52-25,9.74q-38,14.67-76,29.32C737.21,338.4,735,339.24,732.72,340.08Z"/><path class="cls-14" d="M183.07,339.73c-4.19-1.52-8.4-3-12.56-4.57q-46-17.7-91.89-35.45c-1-.4-2.05-.85-3.08-1.28a23,23,0,0,1,2.86-1.58q44-17,88.11-33.87c4.48-1.72,9-3.42,13.39-5.25a8.5,8.5,0,0,1,6.88,0c8.89,3.58,17.86,7,26.81,10.41L291.44,298a.79.79,0,0,0-.57.24c-1,.48-2,1-3,1.43q-18.09,7-36.21,14.05-28.41,10.94-56.85,21.81C190.91,337,187,338.33,183.07,339.73Z"/><path class="cls-14" d="M455.51,233.48c-3.8-1.63-7.57-3.36-11.42-4.87-16.65-6.52-33.33-13-50-19.45-11.16-4.35-22.29-8.75-33.45-13.08-2.52-1-5.12-1.75-7.69-2.62l-1.3-.92c2.16-1,4.26-2.16,6.48-3Q391.2,176.74,424.3,164c10-3.84,20-7.62,29.91-11.62a9.75,9.75,0,0,1,7.8.07c20,7.91,40.15,15.7,60.22,23.54q19,7.41,37.91,14.86c1.47.58,3,1,4.05,2.35-12.94,4.93-25.89,9.84-38.82,14.81-14.12,5.43-28.22,10.93-42.33,16.39q-12.47,4.82-25,9.6l-.22-.19-.27.19Z"/><path class="cls-7" d="M334.48,222.55a17.3,17.3,0,0,1-1.66,9.2,129.33,129.33,0,0,1-7.44,13.31c-2.19,3.51-4.54,6.92-6.61,10.49-1.75,3-3.07,6.27-4.82,9.28A128.28,128.28,0,0,0,307,278.42c-1.5,3.46-3.84,6.56-5.82,9.82a29.31,29.31,0,0,0-1.76,2.82,4,4,0,0,1-4.62,2.52c.6-1.3,1.11-2.64,1.81-3.89q17.56-31.63,35.17-63.24C332.56,225.08,333.58,223.85,334.48,222.55Z"/><path class="cls-7" d="M290.87,298.21a.79.79,0,0,1,.57-.24l1.32-.74a6.66,6.66,0,0,1,3.62,4.22,7.65,7.65,0,0,0,1.26,2.56c3.89,5,6.13,10.75,8.65,16.43,2.07,4.66,4.49,9.16,6.77,13.73,1.66,3.34,2.86,6.76,2,10.58a20.24,20.24,0,0,1-1.58-2.35c-3.25-6.59-6.47-13.21-9.69-19.81s-6.4-13.24-9.69-19.82C293.3,301.11,292.84,299.09,290.87,298.21Z"/><path class="cls-7" d="M351.66,192.55l1.3.92c-.49,1.66-.69,3.47-1.52,4.94-2.64,4.68-5.52,9.23-8.3,13.83A4.83,4.83,0,0,1,339,215a18.1,18.1,0,0,1,1-3.11q4.77-8.73,9.69-17.37A10.24,10.24,0,0,1,351.66,192.55Z"/><path class="cls-7" d="M337.8,216.53a2.31,2.31,0,0,1,1.16,2.82c-.47,1.38-1.07,2.69-2.66,3.08a10.79,10.79,0,0,1-1.88.13A14,14,0,0,1,337.8,216.53Z"/><path class="cls-1" d="M290.87,298.21c2,.89,2.43,2.9,3.26,4.56,3.29,6.58,6.47,13.21,9.69,19.82s6.44,13.22,9.69,19.81a20.24,20.24,0,0,0,1.58,2.35l0,0a29,29,0,0,0,1.12,3.11q9.64,19.74,19.35,39.46c1.4,2.84,3,5.57,4.51,8.35l0,.09a4.24,4.24,0,0,0,.34,1.38c2.36,3.49,2.54,7.38,2.54,11.45q-.09,112.54,0,225.08v5.14c-1.61.4-1.82-.78-2.22-1.53-5.26-9.88-10.46-19.79-15.71-29.68q-17.54-33-35.1-66.08-20-37.72-39.9-75.48-18.75-35.4-37.55-70.76-14.71-27.76-29.36-55.56c3.91-1.41,7.84-2.75,11.71-4.23q28.44-10.87,56.85-21.81,18.12-7,36.21-14.05C288.88,299.23,289.86,298.69,290.87,298.21Z"/><path class="cls-13" d="M370.35,391.65c5.83-2.15,11.69-4.24,17.5-6.45Q417.4,374,446.93,362.69c3-1.14,6-2.21,8.95-3.43a6.45,6.45,0,0,1,5.1,0c4.31,1.68,8.66,3.28,13,4.93l65.76,25.07c.89.34,1.83.56,2.74.84,4.53,1.82,9.05,3.67,13.6,5.45,4.71,1.84,9.45,3.61,14.16,5.43.88.34,1.7.83,2.54,1.25-3.67,1.53-7.3,3.17-11,4.59q-25.43,9.71-50.91,19.31l-48.68,18.47c-1.49.56-3,1-4.5,1.56a35.91,35.91,0,0,0-3.38-1.69q-25-9.53-50.09-19Q376,414.73,347.87,404c-1-.38-1.91-.93-3.36-1.64a14.11,14.11,0,0,1,1.89-1.19c6.69-2.58,13.4-5.13,20.09-7.72C367.81,392.94,369.07,392.25,370.35,391.65Z"/><path class="cls-7" d="M457.61,234.06l.27-.19.22.19s-.07.24-.07.24l-.36,0Z"/><path class="cls-7" d="M340.1,395.7c-1.51-2.78-3.11-5.52-4.51-8.35q-9.73-19.7-19.35-39.46a29,29,0,0,1-1.12-3.11,3.85,3.85,0,0,1,3.84,2.36c4.12,8.08,9.32,15.63,11.84,24.49a17.55,17.55,0,0,0,1.69,3.39c1.9,3.5,4,6.91,5.69,10.5C339.68,388.69,340.73,392.07,340.1,395.7Z"/><path class="cls-15" d="M795.79,156.87c-.12-3.87-.12-9.49-5.86-9.49-5.39,0-6.21,5.63-6.45,7.15-.47,3.28-.47,7.27-.35,13.59A31.49,31.49,0,0,1,800,163.67c6.33,0,13,1.41,17.23,4.92,6.45,5.51,6.45,13.83,6.45,18.63,0,4.45-.12,13.24-8.91,19.69-7.5,5.51-18.4,6.21-26,6.21-25.2,0-33.75-7.62-33.75-32.23,0-28,1.64-38.67,19.1-43.83a55.73,55.73,0,0,1,15.82-1.87c31.05,0,31.05,13.71,30.94,21.68Zm-6,19.22c-4.69,0-6.68,4-6.68,12.66,0,8.32,1.41,12.19,6.09,12.19,6,0,6.56-5.62,6.56-13.48C795.79,181.95,795.44,176.09,789.81,176.09Z"/><path class="cls-15" d="M896.75,199.53h-8.09v12.54H864.88V199.53h-39v-15.7c11.13-20.74,14.18-26.6,24.61-47.58h24.73C863.82,158.63,861.6,163,852,181.6h13.13V159.68h23.55V181.6h8.09Z"/></g></g></svg>